<svg width="14" height="14" viewBox="0 0 14 14" fill="none" xmlns="http://www.w3.org/2000/svg">
<g clip-path="url(#clip0_6663_172)">
<path d="M4.63999 11.054L1.72199 7.58602C1.62896 7.49168 1.51811 7.41678 1.39588 7.36565C1.27366 7.31453 1.14249 7.2882 1.00999 7.2882C0.877504 7.2882 0.746334 7.31453 0.624105 7.36565C0.501877 7.41678 0.391027 7.49168 0.297995 7.58602C0.203626 7.68037 0.128768 7.79238 0.0776956 7.91566C0.0266228 8.03894 0.000335693 8.17108 0.000335693 8.30452C0.000335693 8.43796 0.0266228 8.5701 0.0776956 8.69338C0.128768 8.81666 0.203626 8.92867 0.297995 9.02302L3.91799 13.199C4.01168 13.294 4.12331 13.3695 4.24639 13.4209C4.36948 13.4724 4.50157 13.4989 4.63499 13.4989C4.76842 13.4989 4.90051 13.4724 5.0236 13.4209C5.14668 13.3695 5.25831 13.294 5.35199 13.199L13.702 2.23702C13.7964 2.14267 13.8712 2.03066 13.9223 1.90738C13.9734 1.78409 13.9997 1.65196 13.9997 1.51852C13.9997 1.38508 13.9734 1.25294 13.9223 1.12966C13.8712 1.00638 13.7964 0.894365 13.702 0.800018C13.609 0.705685 13.4981 0.630779 13.3759 0.579652C13.2537 0.528526 13.1225 0.502197 12.99 0.502197C12.8575 0.502197 12.7263 0.528526 12.6041 0.579652C12.4819 0.630779 12.371 0.705685 12.278 0.800018L4.63999 11.054Z" fill="white"/>
</g>
<defs>
<clipPath id="clip0_6663_172">
<rect width="14" height="13" fill="white" transform="translate(0 0.5)"/>
</clipPath>
</defs>
</svg>
