<svg width="12" height="8" viewBox="0 0 12 8" fill="none" xmlns="http://www.w3.org/2000/svg">
<path d="M1.27378 2.85924L5.31178 6.89324C5.45605 7.03801 5.62749 7.15287 5.81625 7.23125C6.00501 7.30962 6.20739 7.34997 6.41178 7.34997C6.61616 7.34997 6.81854 7.30962 7.0073 7.23125C7.19606 7.15287 7.3675 7.03801 7.51178 6.89324L11.5498 2.85524C11.766 2.63592 11.9126 2.35765 11.9713 2.05532C12.03 1.75299 11.9982 1.44006 11.8797 1.15577C11.7613 0.871477 11.5616 0.628481 11.3056 0.45725C11.0496 0.286019 10.7487 0.194176 10.4408 0.193237L2.36478 0.193237C2.05645 0.194567 1.75544 0.287293 1.49981 0.459688C1.24419 0.632084 1.04542 0.876408 0.928641 1.16177C0.811865 1.44712 0.782327 1.7607 0.843759 2.06285C0.905192 2.36499 1.05484 2.64214 1.27378 2.85924Z" fill="#323338"/>
</svg>
