<svg width="17" height="18" viewBox="0 0 17 18" fill="none" xmlns="http://www.w3.org/2000/svg">
<path d="M16.6349 0.392469C16.5155 0.272781 16.3738 0.177823 16.2177 0.113033C16.0617 0.0482423 15.8944 0.0148926 15.7254 0.0148926C15.5564 0.0148926 15.3891 0.0482423 15.2331 0.113033C15.077 0.177823 14.9353 0.272781 14.8159 0.392469L8.51264 6.69156L2.20936 0.384459C1.96662 0.155906 1.64471 0.0305257 1.31143 0.0347227C0.978144 0.0389197 0.659491 0.172366 0.422576 0.40696C0.18566 0.641554 0.0489704 0.958987 0.0412922 1.29241C0.0336139 1.62584 0.155546 1.94923 0.381411 2.1945L6.68469 8.5016L0.381411 14.8087C0.138612 15.0497 0.00141819 15.3772 1.09331e-05 15.7194C-0.00139632 16.0616 0.133098 16.3903 0.373908 16.6332C0.614717 16.8762 0.942115 17.0135 1.28408 17.0149C1.62604 17.0163 1.95456 16.8817 2.19736 16.6408L8.50064 10.3337L14.8039 16.6408C15.0473 16.8713 15.371 16.9978 15.7061 16.9932C16.0412 16.9886 16.3614 16.8534 16.5984 16.6162C16.8353 16.3791 16.9705 16.0588 16.9751 15.7235C16.9797 15.3881 16.8533 15.0642 16.6229 14.8207L10.3196 8.51361L16.6229 2.20651C16.8623 1.96616 16.9977 1.64129 17 1.30195C17.0022 0.962604 16.8711 0.635968 16.6349 0.392469Z" fill="#323338"/>
</svg>
