<svg width="17" height="16" viewBox="0 0 17 16" fill="none" xmlns="http://www.w3.org/2000/svg">
<path d="M12.671 10.302H11.933L11.672 10.05C12.6973 8.85564 13.2199 7.3105 13.1301 5.73902C13.0404 4.16754 12.3453 2.69194 11.1907 1.62204C10.0362 0.552147 8.51206 -0.0288267 6.9383 0.00110144C5.36454 0.0310296 3.86358 0.669532 2.75057 1.78255C1.63755 2.89557 0.999047 4.39652 0.969119 5.97028C0.939191 7.54404 1.52016 9.06819 2.59006 10.2227C3.65996 11.3773 5.13555 12.0724 6.70704 12.1621C8.27852 12.2518 9.82366 11.7292 11.018 10.704L11.27 10.965V11.703L15.238 15.671C15.3284 15.7667 15.437 15.8434 15.5575 15.8964C15.6779 15.9494 15.8078 15.9777 15.9394 15.9796C16.0711 15.9815 16.2017 15.957 16.3237 15.9075C16.4456 15.858 16.5564 15.7846 16.6495 15.6915C16.7426 15.5984 16.816 15.4876 16.8655 15.3657C16.915 15.2437 16.9395 15.113 16.9376 14.9814C16.9357 14.8498 16.9074 14.7199 16.8544 14.5994C16.8014 14.479 16.7248 14.3703 16.629 14.28L12.671 10.302ZM7.07103 10.302C6.24035 10.302 5.42832 10.0557 4.73763 9.59418C4.04695 9.13268 3.50862 8.47673 3.19073 7.70928C2.87285 6.94183 2.78967 6.09735 2.95173 5.28263C3.11379 4.46791 3.5138 3.71954 4.10118 3.13216C4.68856 2.54478 5.43693 2.14477 6.25165 1.98271C7.06637 1.82066 7.91085 1.90383 8.6783 2.22172C9.44575 2.53961 10.1017 3.07793 10.5632 3.76862C11.0247 4.4593 11.271 5.27133 11.271 6.10201C11.271 6.65373 11.1623 7.20005 10.9511 7.70974C10.7399 8.21944 10.4304 8.68254 10.0402 9.07257C9.64995 9.4626 9.18671 9.77193 8.67691 9.98288C8.16712 10.1938 7.62075 10.3023 7.06903 10.302H7.07103Z" fill="#EAEAEA"/>
</svg>
