<svg width="344" height="207" viewBox="0 0 344 207" fill="none" xmlns="http://www.w3.org/2000/svg">
<path d="M107.023 178H104.734L99.1172 168.898H99.0547L99.0938 169.406C99.1667 170.375 99.2031 171.26 99.2031 172.062V178H97.5078V166.578H99.7734L105.375 175.633H105.422C105.411 175.513 105.391 175.078 105.359 174.328C105.328 173.573 105.312 172.984 105.312 172.562V166.578H107.023V178ZM117.508 173.664C117.508 175.076 117.146 176.177 116.422 176.969C115.698 177.76 114.69 178.156 113.398 178.156C112.591 178.156 111.878 177.974 111.258 177.609C110.638 177.245 110.161 176.721 109.828 176.039C109.495 175.357 109.328 174.565 109.328 173.664C109.328 172.263 109.688 171.169 110.406 170.383C111.125 169.596 112.138 169.203 113.445 169.203C114.695 169.203 115.685 169.607 116.414 170.414C117.143 171.216 117.508 172.299 117.508 173.664ZM111.219 173.664C111.219 175.659 111.956 176.656 113.43 176.656C114.888 176.656 115.617 175.659 115.617 173.664C115.617 171.69 114.883 170.703 113.414 170.703C112.643 170.703 112.083 170.958 111.734 171.469C111.391 171.979 111.219 172.711 111.219 173.664ZM130.562 174.898C130.562 175.914 130.195 176.711 129.461 177.289C128.727 177.867 127.714 178.156 126.422 178.156C125.13 178.156 124.073 177.956 123.25 177.555V175.789C123.771 176.034 124.323 176.227 124.906 176.367C125.495 176.508 126.042 176.578 126.547 176.578C127.286 176.578 127.831 176.438 128.18 176.156C128.534 175.875 128.711 175.497 128.711 175.023C128.711 174.596 128.549 174.234 128.227 173.938C127.904 173.641 127.237 173.289 126.227 172.883C125.185 172.461 124.451 171.979 124.023 171.438C123.596 170.896 123.383 170.245 123.383 169.484C123.383 168.531 123.721 167.781 124.398 167.234C125.076 166.688 125.984 166.414 127.125 166.414C128.219 166.414 129.307 166.654 130.391 167.133L129.797 168.656C128.781 168.229 127.875 168.016 127.078 168.016C126.474 168.016 126.016 168.148 125.703 168.414C125.391 168.674 125.234 169.021 125.234 169.453C125.234 169.75 125.297 170.005 125.422 170.219C125.547 170.427 125.753 170.625 126.039 170.812C126.326 171 126.841 171.247 127.586 171.555C128.424 171.904 129.039 172.229 129.43 172.531C129.82 172.833 130.107 173.174 130.289 173.555C130.471 173.935 130.562 174.383 130.562 174.898ZM136.352 178.156C135.008 178.156 133.956 177.766 133.195 176.984C132.44 176.198 132.062 175.117 132.062 173.742C132.062 172.331 132.414 171.221 133.117 170.414C133.82 169.607 134.786 169.203 136.016 169.203C137.156 169.203 138.057 169.549 138.719 170.242C139.38 170.935 139.711 171.888 139.711 173.102V174.094H133.953C133.979 174.932 134.206 175.578 134.633 176.031C135.06 176.479 135.661 176.703 136.438 176.703C136.948 176.703 137.422 176.656 137.859 176.562C138.302 176.464 138.776 176.302 139.281 176.078V177.57C138.833 177.784 138.38 177.935 137.922 178.023C137.464 178.112 136.94 178.156 136.352 178.156ZM136.016 170.594C135.432 170.594 134.964 170.779 134.609 171.148C134.26 171.518 134.052 172.057 133.984 172.766H137.906C137.896 172.052 137.724 171.513 137.391 171.148C137.057 170.779 136.599 170.594 136.016 170.594ZM146.18 169.203C146.549 169.203 146.854 169.229 147.094 169.281L146.914 170.992C146.654 170.93 146.383 170.898 146.102 170.898C145.367 170.898 144.771 171.138 144.312 171.617C143.859 172.096 143.633 172.719 143.633 173.484V178H141.797V169.359H143.234L143.477 170.883H143.57C143.857 170.367 144.229 169.958 144.688 169.656C145.151 169.354 145.648 169.203 146.18 169.203ZM150.672 178L147.391 169.359H149.328L151.086 174.383C151.388 175.227 151.57 175.909 151.633 176.43H151.695C151.742 176.055 151.924 175.372 152.242 174.383L154 169.359H155.953L152.656 178H150.672ZM159.102 178H157.266V169.359H159.102V178ZM157.156 167.07C157.156 166.742 157.245 166.49 157.422 166.312C157.604 166.135 157.862 166.047 158.195 166.047C158.518 166.047 158.768 166.135 158.945 166.312C159.128 166.49 159.219 166.742 159.219 167.07C159.219 167.383 159.128 167.63 158.945 167.812C158.768 167.99 158.518 168.078 158.195 168.078C157.862 168.078 157.604 167.99 157.422 167.812C157.245 167.63 157.156 167.383 157.156 167.07ZM165.219 178.156C163.911 178.156 162.917 177.776 162.234 177.016C161.557 176.25 161.219 175.154 161.219 173.727C161.219 172.273 161.573 171.156 162.281 170.375C162.995 169.594 164.023 169.203 165.367 169.203C166.279 169.203 167.099 169.372 167.828 169.711L167.273 171.188C166.497 170.885 165.857 170.734 165.352 170.734C163.857 170.734 163.109 171.727 163.109 173.711C163.109 174.68 163.294 175.409 163.664 175.898C164.039 176.383 164.586 176.625 165.305 176.625C166.122 176.625 166.896 176.422 167.625 176.016V177.617C167.297 177.81 166.945 177.948 166.57 178.031C166.201 178.115 165.75 178.156 165.219 178.156ZM173.43 178.156C172.086 178.156 171.034 177.766 170.273 176.984C169.518 176.198 169.141 175.117 169.141 173.742C169.141 172.331 169.492 171.221 170.195 170.414C170.898 169.607 171.865 169.203 173.094 169.203C174.234 169.203 175.135 169.549 175.797 170.242C176.458 170.935 176.789 171.888 176.789 173.102V174.094H171.031C171.057 174.932 171.284 175.578 171.711 176.031C172.138 176.479 172.74 176.703 173.516 176.703C174.026 176.703 174.5 176.656 174.938 176.562C175.38 176.464 175.854 176.302 176.359 176.078V177.57C175.911 177.784 175.458 177.935 175 178.023C174.542 178.112 174.018 178.156 173.43 178.156ZM173.094 170.594C172.51 170.594 172.042 170.779 171.688 171.148C171.339 171.518 171.13 172.057 171.062 172.766H174.984C174.974 172.052 174.802 171.513 174.469 171.148C174.135 170.779 173.677 170.594 173.094 170.594ZM189.812 174.898C189.812 175.914 189.445 176.711 188.711 177.289C187.977 177.867 186.964 178.156 185.672 178.156C184.38 178.156 183.323 177.956 182.5 177.555V175.789C183.021 176.034 183.573 176.227 184.156 176.367C184.745 176.508 185.292 176.578 185.797 176.578C186.536 176.578 187.081 176.438 187.43 176.156C187.784 175.875 187.961 175.497 187.961 175.023C187.961 174.596 187.799 174.234 187.477 173.938C187.154 173.641 186.487 173.289 185.477 172.883C184.435 172.461 183.701 171.979 183.273 171.438C182.846 170.896 182.633 170.245 182.633 169.484C182.633 168.531 182.971 167.781 183.648 167.234C184.326 166.688 185.234 166.414 186.375 166.414C187.469 166.414 188.557 166.654 189.641 167.133L189.047 168.656C188.031 168.229 187.125 168.016 186.328 168.016C185.724 168.016 185.266 168.148 184.953 168.414C184.641 168.674 184.484 169.021 184.484 169.453C184.484 169.75 184.547 170.005 184.672 170.219C184.797 170.427 185.003 170.625 185.289 170.812C185.576 171 186.091 171.247 186.836 171.555C187.674 171.904 188.289 172.229 188.68 172.531C189.07 172.833 189.357 173.174 189.539 173.555C189.721 173.935 189.812 174.383 189.812 174.898ZM195.602 178.156C194.258 178.156 193.206 177.766 192.445 176.984C191.69 176.198 191.312 175.117 191.312 173.742C191.312 172.331 191.664 171.221 192.367 170.414C193.07 169.607 194.036 169.203 195.266 169.203C196.406 169.203 197.307 169.549 197.969 170.242C198.63 170.935 198.961 171.888 198.961 173.102V174.094H193.203C193.229 174.932 193.456 175.578 193.883 176.031C194.31 176.479 194.911 176.703 195.688 176.703C196.198 176.703 196.672 176.656 197.109 176.562C197.552 176.464 198.026 176.302 198.531 176.078V177.57C198.083 177.784 197.63 177.935 197.172 178.023C196.714 178.112 196.19 178.156 195.602 178.156ZM195.266 170.594C194.682 170.594 194.214 170.779 193.859 171.148C193.51 171.518 193.302 172.057 193.234 172.766H197.156C197.146 172.052 196.974 171.513 196.641 171.148C196.307 170.779 195.849 170.594 195.266 170.594ZM202.883 178H201.047V165.844H202.883V178ZM209.289 178.156C207.945 178.156 206.893 177.766 206.133 176.984C205.378 176.198 205 175.117 205 173.742C205 172.331 205.352 171.221 206.055 170.414C206.758 169.607 207.724 169.203 208.953 169.203C210.094 169.203 210.995 169.549 211.656 170.242C212.318 170.935 212.648 171.888 212.648 173.102V174.094H206.891C206.917 174.932 207.143 175.578 207.57 176.031C207.997 176.479 208.599 176.703 209.375 176.703C209.885 176.703 210.359 176.656 210.797 176.562C211.24 176.464 211.714 176.302 212.219 176.078V177.57C211.771 177.784 211.318 177.935 210.859 178.023C210.401 178.112 209.878 178.156 209.289 178.156ZM208.953 170.594C208.37 170.594 207.901 170.779 207.547 171.148C207.198 171.518 206.99 172.057 206.922 172.766H210.844C210.833 172.052 210.661 171.513 210.328 171.148C209.995 170.779 209.536 170.594 208.953 170.594ZM218.219 178.156C216.911 178.156 215.917 177.776 215.234 177.016C214.557 176.25 214.219 175.154 214.219 173.727C214.219 172.273 214.573 171.156 215.281 170.375C215.995 169.594 217.023 169.203 218.367 169.203C219.279 169.203 220.099 169.372 220.828 169.711L220.273 171.188C219.497 170.885 218.857 170.734 218.352 170.734C216.857 170.734 216.109 171.727 216.109 173.711C216.109 174.68 216.294 175.409 216.664 175.898C217.039 176.383 217.586 176.625 218.305 176.625C219.122 176.625 219.896 176.422 220.625 176.016V177.617C220.297 177.81 219.945 177.948 219.57 178.031C219.201 178.115 218.75 178.156 218.219 178.156ZM225.875 176.672C226.323 176.672 226.771 176.602 227.219 176.461V177.844C227.016 177.932 226.753 178.005 226.43 178.062C226.112 178.125 225.781 178.156 225.438 178.156C223.698 178.156 222.828 177.24 222.828 175.406V170.75H221.648V169.938L222.914 169.266L223.539 167.438H224.672V169.359H227.133V170.75H224.672V175.375C224.672 175.818 224.781 176.146 225 176.359C225.224 176.568 225.516 176.672 225.875 176.672ZM232.727 178.156C231.383 178.156 230.331 177.766 229.57 176.984C228.815 176.198 228.438 175.117 228.438 173.742C228.438 172.331 228.789 171.221 229.492 170.414C230.195 169.607 231.161 169.203 232.391 169.203C233.531 169.203 234.432 169.549 235.094 170.242C235.755 170.935 236.086 171.888 236.086 173.102V174.094H230.328C230.354 174.932 230.581 175.578 231.008 176.031C231.435 176.479 232.036 176.703 232.812 176.703C233.323 176.703 233.797 176.656 234.234 176.562C234.677 176.464 235.151 176.302 235.656 176.078V177.57C235.208 177.784 234.755 177.935 234.297 178.023C233.839 178.112 233.315 178.156 232.727 178.156ZM232.391 170.594C231.807 170.594 231.339 170.779 230.984 171.148C230.635 171.518 230.427 172.057 230.359 172.766H234.281C234.271 172.052 234.099 171.513 233.766 171.148C233.432 170.779 232.974 170.594 232.391 170.594ZM241.086 178.156C240.008 178.156 239.167 177.766 238.562 176.984C237.958 176.203 237.656 175.107 237.656 173.695C237.656 172.279 237.961 171.177 238.57 170.391C239.185 169.599 240.034 169.203 241.117 169.203C242.253 169.203 243.117 169.622 243.711 170.461H243.805C243.716 169.841 243.672 169.352 243.672 168.992V165.844H245.516V178H244.078L243.758 176.867H243.672C243.083 177.727 242.221 178.156 241.086 178.156ZM241.578 176.672C242.333 176.672 242.883 176.461 243.227 176.039C243.57 175.612 243.747 174.922 243.758 173.969V173.711C243.758 172.622 243.581 171.849 243.227 171.391C242.872 170.932 242.318 170.703 241.562 170.703C240.917 170.703 240.419 170.966 240.07 171.492C239.721 172.013 239.547 172.758 239.547 173.727C239.547 174.685 239.716 175.417 240.055 175.922C240.393 176.422 240.901 176.672 241.578 176.672Z" fill="black"/>
<path d="M8.8125 193.906C8.8125 195.062 8.41667 195.953 7.625 196.578C6.83854 197.198 5.71094 197.508 4.24219 197.508H2.89844V202H1.57031V190.578H4.53125C7.38542 190.578 8.8125 191.688 8.8125 193.906ZM2.89844 196.367H4.09375C5.27083 196.367 6.1224 196.177 6.64844 195.797C7.17448 195.417 7.4375 194.807 7.4375 193.969C7.4375 193.214 7.1901 192.651 6.69531 192.281C6.20052 191.911 5.42969 191.727 4.38281 191.727H2.89844V196.367ZM12.3125 202H11.0156V189.844H12.3125V202ZM18.6797 202.156C17.4141 202.156 16.4141 201.771 15.6797 201C14.9505 200.229 14.5859 199.159 14.5859 197.789C14.5859 196.409 14.9245 195.312 15.6016 194.5C16.2839 193.688 17.1979 193.281 18.3438 193.281C19.4167 193.281 20.2656 193.635 20.8906 194.344C21.5156 195.047 21.8281 195.977 21.8281 197.133V197.953H15.9297C15.9557 198.958 16.2083 199.721 16.6875 200.242C17.1719 200.763 17.8516 201.023 18.7266 201.023C19.6484 201.023 20.5599 200.831 21.4609 200.445V201.602C21.0026 201.799 20.5677 201.94 20.1562 202.023C19.75 202.112 19.2578 202.156 18.6797 202.156ZM18.3281 194.367C17.6406 194.367 17.0911 194.591 16.6797 195.039C16.2734 195.487 16.0339 196.107 15.9609 196.898H20.4375C20.4375 196.081 20.2552 195.456 19.8906 195.023C19.526 194.586 19.0052 194.367 18.3281 194.367ZM29.3125 202L29.0547 200.781H28.9922C28.5651 201.318 28.138 201.682 27.7109 201.875C27.2891 202.062 26.7604 202.156 26.125 202.156C25.276 202.156 24.6094 201.938 24.125 201.5C23.6458 201.062 23.4062 200.44 23.4062 199.633C23.4062 197.904 24.7891 196.997 27.5547 196.914L29.0078 196.867V196.336C29.0078 195.664 28.862 195.169 28.5703 194.852C28.2839 194.529 27.8229 194.367 27.1875 194.367C26.474 194.367 25.6667 194.586 24.7656 195.023L24.3672 194.031C24.7891 193.802 25.25 193.622 25.75 193.492C26.2552 193.362 26.7604 193.297 27.2656 193.297C28.2865 193.297 29.0417 193.523 29.5312 193.977C30.026 194.43 30.2734 195.156 30.2734 196.156V202H29.3125ZM26.3828 201.086C27.1901 201.086 27.8229 200.865 28.2812 200.422C28.7448 199.979 28.9766 199.359 28.9766 198.562V197.789L27.6797 197.844C26.6484 197.88 25.9036 198.042 25.4453 198.328C24.9922 198.609 24.7656 199.049 24.7656 199.648C24.7656 200.117 24.9062 200.474 25.1875 200.719C25.474 200.964 25.8724 201.086 26.3828 201.086ZM38.4766 199.664C38.4766 200.461 38.1797 201.076 37.5859 201.508C36.9922 201.94 36.1589 202.156 35.0859 202.156C33.9505 202.156 33.0651 201.977 32.4297 201.617V200.414C32.8411 200.622 33.2812 200.786 33.75 200.906C34.224 201.026 34.6797 201.086 35.1172 201.086C35.7943 201.086 36.3151 200.979 36.6797 200.766C37.0443 200.547 37.2266 200.216 37.2266 199.773C37.2266 199.44 37.0807 199.156 36.7891 198.922C36.5026 198.682 35.9401 198.401 35.1016 198.078C34.3047 197.781 33.737 197.523 33.3984 197.305C33.0651 197.081 32.8151 196.828 32.6484 196.547C32.487 196.266 32.4062 195.93 32.4062 195.539C32.4062 194.841 32.6901 194.292 33.2578 193.891C33.8255 193.484 34.6042 193.281 35.5938 193.281C36.5156 193.281 37.4167 193.469 38.2969 193.844L37.8359 194.898C36.9766 194.544 36.1979 194.367 35.5 194.367C34.8854 194.367 34.4219 194.464 34.1094 194.656C33.7969 194.849 33.6406 195.115 33.6406 195.453C33.6406 195.682 33.6979 195.878 33.8125 196.039C33.9323 196.201 34.1224 196.354 34.3828 196.5C34.6432 196.646 35.1432 196.857 35.8828 197.133C36.8984 197.503 37.5833 197.875 37.9375 198.25C38.2969 198.625 38.4766 199.096 38.4766 199.664ZM44.2109 202.156C42.9453 202.156 41.9453 201.771 41.2109 201C40.4818 200.229 40.1172 199.159 40.1172 197.789C40.1172 196.409 40.4557 195.312 41.1328 194.5C41.8151 193.688 42.7292 193.281 43.875 193.281C44.9479 193.281 45.7969 193.635 46.4219 194.344C47.0469 195.047 47.3594 195.977 47.3594 197.133V197.953H41.4609C41.487 198.958 41.7396 199.721 42.2188 200.242C42.7031 200.763 43.3828 201.023 44.2578 201.023C45.1797 201.023 46.0911 200.831 46.9922 200.445V201.602C46.5339 201.799 46.099 201.94 45.6875 202.023C45.2812 202.112 44.7891 202.156 44.2109 202.156ZM43.8594 194.367C43.1719 194.367 42.6224 194.591 42.2109 195.039C41.8047 195.487 41.5651 196.107 41.4922 196.898H45.9688C45.9688 196.081 45.7865 195.456 45.4219 195.023C45.0573 194.586 44.5365 194.367 43.8594 194.367ZM59.2578 199.664C59.2578 200.461 58.9609 201.076 58.3672 201.508C57.7734 201.94 56.9401 202.156 55.8672 202.156C54.7318 202.156 53.8464 201.977 53.2109 201.617V200.414C53.6224 200.622 54.0625 200.786 54.5312 200.906C55.0052 201.026 55.4609 201.086 55.8984 201.086C56.5755 201.086 57.0964 200.979 57.4609 200.766C57.8255 200.547 58.0078 200.216 58.0078 199.773C58.0078 199.44 57.862 199.156 57.5703 198.922C57.2839 198.682 56.7214 198.401 55.8828 198.078C55.0859 197.781 54.5182 197.523 54.1797 197.305C53.8464 197.081 53.5964 196.828 53.4297 196.547C53.2682 196.266 53.1875 195.93 53.1875 195.539C53.1875 194.841 53.4714 194.292 54.0391 193.891C54.6068 193.484 55.3854 193.281 56.375 193.281C57.2969 193.281 58.1979 193.469 59.0781 193.844L58.6172 194.898C57.7578 194.544 56.9792 194.367 56.2812 194.367C55.6667 194.367 55.2031 194.464 54.8906 194.656C54.5781 194.849 54.4219 195.115 54.4219 195.453C54.4219 195.682 54.4792 195.878 54.5938 196.039C54.7135 196.201 54.9036 196.354 55.1641 196.5C55.4245 196.646 55.9245 196.857 56.6641 197.133C57.6797 197.503 58.3646 197.875 58.7188 198.25C59.0781 198.625 59.2578 199.096 59.2578 199.664ZM64.9922 202.156C63.7266 202.156 62.7266 201.771 61.9922 201C61.263 200.229 60.8984 199.159 60.8984 197.789C60.8984 196.409 61.237 195.312 61.9141 194.5C62.5964 193.688 63.5104 193.281 64.6562 193.281C65.7292 193.281 66.5781 193.635 67.2031 194.344C67.8281 195.047 68.1406 195.977 68.1406 197.133V197.953H62.2422C62.2682 198.958 62.5208 199.721 63 200.242C63.4844 200.763 64.1641 201.023 65.0391 201.023C65.9609 201.023 66.8724 200.831 67.7734 200.445V201.602C67.3151 201.799 66.8802 201.94 66.4688 202.023C66.0625 202.112 65.5703 202.156 64.9922 202.156ZM64.6406 194.367C63.9531 194.367 63.4036 194.591 62.9922 195.039C62.5859 195.487 62.3464 196.107 62.2734 196.898H66.75C66.75 196.081 66.5677 195.456 66.2031 195.023C65.8385 194.586 65.3177 194.367 64.6406 194.367ZM71.6562 202H70.3594V189.844H71.6562V202ZM78.0234 202.156C76.7578 202.156 75.7578 201.771 75.0234 201C74.2943 200.229 73.9297 199.159 73.9297 197.789C73.9297 196.409 74.2682 195.312 74.9453 194.5C75.6276 193.688 76.5417 193.281 77.6875 193.281C78.7604 193.281 79.6094 193.635 80.2344 194.344C80.8594 195.047 81.1719 195.977 81.1719 197.133V197.953H75.2734C75.2995 198.958 75.5521 199.721 76.0312 200.242C76.5156 200.763 77.1953 201.023 78.0703 201.023C78.9922 201.023 79.9036 200.831 80.8047 200.445V201.602C80.3464 201.799 79.9115 201.94 79.5 202.023C79.0938 202.112 78.6016 202.156 78.0234 202.156ZM77.6719 194.367C76.9844 194.367 76.4349 194.591 76.0234 195.039C75.6172 195.487 75.3776 196.107 75.3047 196.898H79.7812C79.7812 196.081 79.599 195.456 79.2344 195.023C78.8698 194.586 78.349 194.367 77.6719 194.367ZM86.8125 202.156C85.5729 202.156 84.612 201.776 83.9297 201.016C83.2526 200.25 82.9141 199.169 82.9141 197.773C82.9141 196.341 83.2578 195.234 83.9453 194.453C84.638 193.672 85.6224 193.281 86.8984 193.281C87.3099 193.281 87.7214 193.326 88.1328 193.414C88.5443 193.503 88.8672 193.607 89.1016 193.727L88.7031 194.828C88.4167 194.714 88.1042 194.62 87.7656 194.547C87.4271 194.469 87.1276 194.43 86.8672 194.43C85.1276 194.43 84.2578 195.539 84.2578 197.758C84.2578 198.81 84.4688 199.617 84.8906 200.18C85.3177 200.742 85.9479 201.023 86.7812 201.023C87.4948 201.023 88.2266 200.87 88.9766 200.562V201.711C88.4036 202.008 87.6823 202.156 86.8125 202.156ZM93.7812 201.086C94.0104 201.086 94.2318 201.07 94.4453 201.039C94.6589 201.003 94.8281 200.966 94.9531 200.93V201.922C94.8125 201.99 94.6042 202.044 94.3281 202.086C94.0573 202.133 93.8125 202.156 93.5938 202.156C91.9375 202.156 91.1094 201.284 91.1094 199.539V194.445H89.8828V193.82L91.1094 193.281L91.6562 191.453H92.4062V193.438H94.8906V194.445H92.4062V199.484C92.4062 200 92.5286 200.396 92.7734 200.672C93.0182 200.948 93.3542 201.086 93.7812 201.086ZM106.094 202L105.836 200.781H105.773C105.346 201.318 104.919 201.682 104.492 201.875C104.07 202.062 103.542 202.156 102.906 202.156C102.057 202.156 101.391 201.938 100.906 201.5C100.427 201.062 100.188 200.44 100.188 199.633C100.188 197.904 101.57 196.997 104.336 196.914L105.789 196.867V196.336C105.789 195.664 105.643 195.169 105.352 194.852C105.065 194.529 104.604 194.367 103.969 194.367C103.255 194.367 102.448 194.586 101.547 195.023L101.148 194.031C101.57 193.802 102.031 193.622 102.531 193.492C103.036 193.362 103.542 193.297 104.047 193.297C105.068 193.297 105.823 193.523 106.312 193.977C106.807 194.43 107.055 195.156 107.055 196.156V202H106.094ZM103.164 201.086C103.971 201.086 104.604 200.865 105.062 200.422C105.526 199.979 105.758 199.359 105.758 198.562V197.789L104.461 197.844C103.43 197.88 102.685 198.042 102.227 198.328C101.773 198.609 101.547 199.049 101.547 199.648C101.547 200.117 101.688 200.474 101.969 200.719C102.255 200.964 102.654 201.086 103.164 201.086ZM119.414 199.664C119.414 200.461 119.117 201.076 118.523 201.508C117.93 201.94 117.096 202.156 116.023 202.156C114.888 202.156 114.003 201.977 113.367 201.617V200.414C113.779 200.622 114.219 200.786 114.688 200.906C115.161 201.026 115.617 201.086 116.055 201.086C116.732 201.086 117.253 200.979 117.617 200.766C117.982 200.547 118.164 200.216 118.164 199.773C118.164 199.44 118.018 199.156 117.727 198.922C117.44 198.682 116.878 198.401 116.039 198.078C115.242 197.781 114.674 197.523 114.336 197.305C114.003 197.081 113.753 196.828 113.586 196.547C113.424 196.266 113.344 195.93 113.344 195.539C113.344 194.841 113.628 194.292 114.195 193.891C114.763 193.484 115.542 193.281 116.531 193.281C117.453 193.281 118.354 193.469 119.234 193.844L118.773 194.898C117.914 194.544 117.135 194.367 116.438 194.367C115.823 194.367 115.359 194.464 115.047 194.656C114.734 194.849 114.578 195.115 114.578 195.453C114.578 195.682 114.635 195.878 114.75 196.039C114.87 196.201 115.06 196.354 115.32 196.5C115.581 196.646 116.081 196.857 116.82 197.133C117.836 197.503 118.521 197.875 118.875 198.25C119.234 198.625 119.414 199.096 119.414 199.664ZM125.148 202.156C123.883 202.156 122.883 201.771 122.148 201C121.419 200.229 121.055 199.159 121.055 197.789C121.055 196.409 121.393 195.312 122.07 194.5C122.753 193.688 123.667 193.281 124.812 193.281C125.885 193.281 126.734 193.635 127.359 194.344C127.984 195.047 128.297 195.977 128.297 197.133V197.953H122.398C122.424 198.958 122.677 199.721 123.156 200.242C123.641 200.763 124.32 201.023 125.195 201.023C126.117 201.023 127.029 200.831 127.93 200.445V201.602C127.471 201.799 127.036 201.94 126.625 202.023C126.219 202.112 125.727 202.156 125.148 202.156ZM124.797 194.367C124.109 194.367 123.56 194.591 123.148 195.039C122.742 195.487 122.503 196.107 122.43 196.898H126.906C126.906 196.081 126.724 195.456 126.359 195.023C125.995 194.586 125.474 194.367 124.797 194.367ZM134.422 193.281C134.802 193.281 135.143 193.312 135.445 193.375L135.266 194.578C134.911 194.5 134.599 194.461 134.328 194.461C133.635 194.461 133.042 194.742 132.547 195.305C132.057 195.867 131.812 196.568 131.812 197.406V202H130.516V193.438H131.586L131.734 195.023H131.797C132.115 194.466 132.497 194.036 132.945 193.734C133.393 193.432 133.885 193.281 134.422 193.281ZM138.922 202L135.672 193.438H137.062L138.906 198.516C139.323 199.703 139.568 200.474 139.641 200.828H139.703C139.76 200.552 139.94 199.982 140.242 199.117C140.549 198.247 141.234 196.354 142.297 193.438H143.688L140.438 202H138.922ZM146.359 202H145.062V193.438H146.359V202ZM144.953 191.117C144.953 190.82 145.026 190.604 145.172 190.469C145.318 190.328 145.5 190.258 145.719 190.258C145.927 190.258 146.107 190.328 146.258 190.469C146.409 190.609 146.484 190.826 146.484 191.117C146.484 191.409 146.409 191.628 146.258 191.773C146.107 191.914 145.927 191.984 145.719 191.984C145.5 191.984 145.318 191.914 145.172 191.773C145.026 191.628 144.953 191.409 144.953 191.117ZM152.531 202.156C151.292 202.156 150.331 201.776 149.648 201.016C148.971 200.25 148.633 199.169 148.633 197.773C148.633 196.341 148.977 195.234 149.664 194.453C150.357 193.672 151.341 193.281 152.617 193.281C153.029 193.281 153.44 193.326 153.852 193.414C154.263 193.503 154.586 193.607 154.82 193.727L154.422 194.828C154.135 194.714 153.823 194.62 153.484 194.547C153.146 194.469 152.846 194.43 152.586 194.43C150.846 194.43 149.977 195.539 149.977 197.758C149.977 198.81 150.188 199.617 150.609 200.18C151.036 200.742 151.667 201.023 152.5 201.023C153.214 201.023 153.945 200.87 154.695 200.562V201.711C154.122 202.008 153.401 202.156 152.531 202.156ZM160.352 202.156C159.086 202.156 158.086 201.771 157.352 201C156.622 200.229 156.258 199.159 156.258 197.789C156.258 196.409 156.596 195.312 157.273 194.5C157.956 193.688 158.87 193.281 160.016 193.281C161.089 193.281 161.938 193.635 162.562 194.344C163.188 195.047 163.5 195.977 163.5 197.133V197.953H157.602C157.628 198.958 157.88 199.721 158.359 200.242C158.844 200.763 159.523 201.023 160.398 201.023C161.32 201.023 162.232 200.831 163.133 200.445V201.602C162.674 201.799 162.24 201.94 161.828 202.023C161.422 202.112 160.93 202.156 160.352 202.156ZM160 194.367C159.312 194.367 158.763 194.591 158.352 195.039C157.945 195.487 157.706 196.107 157.633 196.898H162.109C162.109 196.081 161.927 195.456 161.562 195.023C161.198 194.586 160.677 194.367 160 194.367ZM177.266 197.711C177.266 199.107 176.914 200.198 176.211 200.984C175.508 201.766 174.536 202.156 173.297 202.156C172.531 202.156 171.852 201.977 171.258 201.617C170.664 201.258 170.206 200.742 169.883 200.07C169.56 199.398 169.398 198.612 169.398 197.711C169.398 196.315 169.747 195.229 170.445 194.453C171.143 193.672 172.112 193.281 173.352 193.281C174.549 193.281 175.5 193.68 176.203 194.477C176.911 195.273 177.266 196.352 177.266 197.711ZM170.742 197.711C170.742 198.805 170.961 199.638 171.398 200.211C171.836 200.784 172.479 201.07 173.328 201.07C174.177 201.07 174.82 200.786 175.258 200.219C175.701 199.646 175.922 198.81 175.922 197.711C175.922 196.622 175.701 195.797 175.258 195.234C174.82 194.667 174.172 194.383 173.312 194.383C172.464 194.383 171.823 194.661 171.391 195.219C170.958 195.776 170.742 196.607 170.742 197.711ZM185.406 202V196.461C185.406 195.763 185.247 195.242 184.93 194.898C184.612 194.555 184.115 194.383 183.438 194.383C182.542 194.383 181.885 194.625 181.469 195.109C181.052 195.594 180.844 196.393 180.844 197.508V202H179.547V193.438H180.602L180.812 194.609H180.875C181.141 194.188 181.513 193.862 181.992 193.633C182.471 193.398 183.005 193.281 183.594 193.281C184.625 193.281 185.401 193.531 185.922 194.031C186.443 194.526 186.703 195.32 186.703 196.414V202H185.406ZM192.172 193.438H193.562L195.438 198.32C195.849 199.435 196.104 200.24 196.203 200.734H196.266C196.333 200.469 196.474 200.016 196.688 199.375C196.906 198.729 197.615 196.75 198.812 193.438H200.203L196.523 203.188C196.159 204.151 195.732 204.833 195.242 205.234C194.758 205.641 194.161 205.844 193.453 205.844C193.057 205.844 192.667 205.799 192.281 205.711V204.672C192.568 204.734 192.888 204.766 193.242 204.766C194.133 204.766 194.768 204.266 195.148 203.266L195.625 202.047L192.172 193.438ZM208.984 197.711C208.984 199.107 208.633 200.198 207.93 200.984C207.227 201.766 206.255 202.156 205.016 202.156C204.25 202.156 203.57 201.977 202.977 201.617C202.383 201.258 201.924 200.742 201.602 200.07C201.279 199.398 201.117 198.612 201.117 197.711C201.117 196.315 201.466 195.229 202.164 194.453C202.862 193.672 203.831 193.281 205.07 193.281C206.268 193.281 207.219 193.68 207.922 194.477C208.63 195.273 208.984 196.352 208.984 197.711ZM202.461 197.711C202.461 198.805 202.68 199.638 203.117 200.211C203.555 200.784 204.198 201.07 205.047 201.07C205.896 201.07 206.539 200.786 206.977 200.219C207.419 199.646 207.641 198.81 207.641 197.711C207.641 196.622 207.419 195.797 206.977 195.234C206.539 194.667 205.891 194.383 205.031 194.383C204.182 194.383 203.542 194.661 203.109 195.219C202.677 195.776 202.461 196.607 202.461 197.711ZM212.484 193.438V198.992C212.484 199.69 212.643 200.211 212.961 200.555C213.279 200.898 213.776 201.07 214.453 201.07C215.349 201.07 216.003 200.826 216.414 200.336C216.831 199.846 217.039 199.047 217.039 197.938V193.438H218.336V202H217.266L217.078 200.852H217.008C216.742 201.273 216.372 201.596 215.898 201.82C215.43 202.044 214.893 202.156 214.289 202.156C213.247 202.156 212.466 201.909 211.945 201.414C211.43 200.919 211.172 200.128 211.172 199.039V193.438H212.484ZM225 193.281C225.38 193.281 225.721 193.312 226.023 193.375L225.844 194.578C225.49 194.5 225.177 194.461 224.906 194.461C224.214 194.461 223.62 194.742 223.125 195.305C222.635 195.867 222.391 196.568 222.391 197.406V202H221.094V193.438H222.164L222.312 195.023H222.375C222.693 194.466 223.076 194.036 223.523 193.734C223.971 193.432 224.464 193.281 225 193.281ZM233.078 202H231.781V189.844H233.078V202ZM239.445 202.156C238.18 202.156 237.18 201.771 236.445 201C235.716 200.229 235.352 199.159 235.352 197.789C235.352 196.409 235.69 195.312 236.367 194.5C237.049 193.688 237.964 193.281 239.109 193.281C240.182 193.281 241.031 193.635 241.656 194.344C242.281 195.047 242.594 195.977 242.594 197.133V197.953H236.695C236.721 198.958 236.974 199.721 237.453 200.242C237.938 200.763 238.617 201.023 239.492 201.023C240.414 201.023 241.326 200.831 242.227 200.445V201.602C241.768 201.799 241.333 201.94 240.922 202.023C240.516 202.112 240.023 202.156 239.445 202.156ZM239.094 194.367C238.406 194.367 237.857 194.591 237.445 195.039C237.039 195.487 236.799 196.107 236.727 196.898H241.203C241.203 196.081 241.021 195.456 240.656 195.023C240.292 194.586 239.771 194.367 239.094 194.367ZM248.672 194.445H246.492V202H245.195V194.445H243.664V193.859L245.195 193.391V192.914C245.195 190.81 246.115 189.758 247.953 189.758C248.406 189.758 248.938 189.849 249.547 190.031L249.211 191.07C248.711 190.909 248.284 190.828 247.93 190.828C247.44 190.828 247.078 190.992 246.844 191.32C246.609 191.643 246.492 192.164 246.492 192.883V193.438H248.672V194.445ZM253 201.086C253.229 201.086 253.451 201.07 253.664 201.039C253.878 201.003 254.047 200.966 254.172 200.93V201.922C254.031 201.99 253.823 202.044 253.547 202.086C253.276 202.133 253.031 202.156 252.812 202.156C251.156 202.156 250.328 201.284 250.328 199.539V194.445H249.102V193.82L250.328 193.281L250.875 191.453H251.625V193.438H254.109V194.445H251.625V199.484C251.625 200 251.747 200.396 251.992 200.672C252.237 200.948 252.573 201.086 253 201.086ZM262.812 201.086C263.042 201.086 263.263 201.07 263.477 201.039C263.69 201.003 263.859 200.966 263.984 200.93V201.922C263.844 201.99 263.635 202.044 263.359 202.086C263.089 202.133 262.844 202.156 262.625 202.156C260.969 202.156 260.141 201.284 260.141 199.539V194.445H258.914V193.82L260.141 193.281L260.688 191.453H261.438V193.438H263.922V194.445H261.438V199.484C261.438 200 261.56 200.396 261.805 200.672C262.049 200.948 262.385 201.086 262.812 201.086ZM273.094 197.711C273.094 199.107 272.742 200.198 272.039 200.984C271.336 201.766 270.365 202.156 269.125 202.156C268.359 202.156 267.68 201.977 267.086 201.617C266.492 201.258 266.034 200.742 265.711 200.07C265.388 199.398 265.227 198.612 265.227 197.711C265.227 196.315 265.576 195.229 266.273 194.453C266.971 193.672 267.94 193.281 269.18 193.281C270.378 193.281 271.328 193.68 272.031 194.477C272.74 195.273 273.094 196.352 273.094 197.711ZM266.57 197.711C266.57 198.805 266.789 199.638 267.227 200.211C267.664 200.784 268.307 201.07 269.156 201.07C270.005 201.07 270.648 200.786 271.086 200.219C271.529 199.646 271.75 198.81 271.75 197.711C271.75 196.622 271.529 195.797 271.086 195.234C270.648 194.667 270 194.383 269.141 194.383C268.292 194.383 267.651 194.661 267.219 195.219C266.786 195.776 266.57 196.607 266.57 197.711ZM283.516 202.156C282.958 202.156 282.448 202.055 281.984 201.852C281.526 201.643 281.141 201.326 280.828 200.898H280.734C280.797 201.398 280.828 201.872 280.828 202.32V205.844H279.531V193.438H280.586L280.766 194.609H280.828C281.161 194.141 281.549 193.802 281.992 193.594C282.435 193.385 282.943 193.281 283.516 193.281C284.651 193.281 285.526 193.669 286.141 194.445C286.76 195.221 287.07 196.31 287.07 197.711C287.07 199.117 286.755 200.211 286.125 200.992C285.5 201.768 284.63 202.156 283.516 202.156ZM283.328 194.383C282.453 194.383 281.82 194.625 281.43 195.109C281.039 195.594 280.839 196.365 280.828 197.422V197.711C280.828 198.914 281.029 199.776 281.43 200.297C281.831 200.812 282.474 201.07 283.359 201.07C284.099 201.07 284.677 200.771 285.094 200.172C285.516 199.573 285.727 198.747 285.727 197.695C285.727 196.628 285.516 195.81 285.094 195.242C284.677 194.669 284.089 194.383 283.328 194.383ZM293.25 193.281C293.63 193.281 293.971 193.312 294.273 193.375L294.094 194.578C293.74 194.5 293.427 194.461 293.156 194.461C292.464 194.461 291.87 194.742 291.375 195.305C290.885 195.867 290.641 196.568 290.641 197.406V202H289.344V193.438H290.414L290.562 195.023H290.625C290.943 194.466 291.326 194.036 291.773 193.734C292.221 193.432 292.714 193.281 293.25 193.281ZM303.266 197.711C303.266 199.107 302.914 200.198 302.211 200.984C301.508 201.766 300.536 202.156 299.297 202.156C298.531 202.156 297.852 201.977 297.258 201.617C296.664 201.258 296.206 200.742 295.883 200.07C295.56 199.398 295.398 198.612 295.398 197.711C295.398 196.315 295.747 195.229 296.445 194.453C297.143 193.672 298.112 193.281 299.352 193.281C300.549 193.281 301.5 193.68 302.203 194.477C302.911 195.273 303.266 196.352 303.266 197.711ZM296.742 197.711C296.742 198.805 296.961 199.638 297.398 200.211C297.836 200.784 298.479 201.07 299.328 201.07C300.177 201.07 300.82 200.786 301.258 200.219C301.701 199.646 301.922 198.81 301.922 197.711C301.922 196.622 301.701 195.797 301.258 195.234C300.82 194.667 300.172 194.383 299.312 194.383C298.464 194.383 297.823 194.661 297.391 195.219C296.958 195.776 296.742 196.607 296.742 197.711ZM308.969 202.156C307.729 202.156 306.768 201.776 306.086 201.016C305.409 200.25 305.07 199.169 305.07 197.773C305.07 196.341 305.414 195.234 306.102 194.453C306.794 193.672 307.779 193.281 309.055 193.281C309.466 193.281 309.878 193.326 310.289 193.414C310.701 193.503 311.023 193.607 311.258 193.727L310.859 194.828C310.573 194.714 310.26 194.62 309.922 194.547C309.583 194.469 309.284 194.43 309.023 194.43C307.284 194.43 306.414 195.539 306.414 197.758C306.414 198.81 306.625 199.617 307.047 200.18C307.474 200.742 308.104 201.023 308.938 201.023C309.651 201.023 310.383 200.87 311.133 200.562V201.711C310.56 202.008 309.839 202.156 308.969 202.156ZM316.789 202.156C315.523 202.156 314.523 201.771 313.789 201C313.06 200.229 312.695 199.159 312.695 197.789C312.695 196.409 313.034 195.312 313.711 194.5C314.393 193.688 315.307 193.281 316.453 193.281C317.526 193.281 318.375 193.635 319 194.344C319.625 195.047 319.938 195.977 319.938 197.133V197.953H314.039C314.065 198.958 314.318 199.721 314.797 200.242C315.281 200.763 315.961 201.023 316.836 201.023C317.758 201.023 318.669 200.831 319.57 200.445V201.602C319.112 201.799 318.677 201.94 318.266 202.023C317.859 202.112 317.367 202.156 316.789 202.156ZM316.438 194.367C315.75 194.367 315.201 194.591 314.789 195.039C314.383 195.487 314.143 196.107 314.07 196.898H318.547C318.547 196.081 318.365 195.456 318 195.023C317.635 194.586 317.115 194.367 316.438 194.367ZM325.773 202.156C324.508 202.156 323.508 201.771 322.773 201C322.044 200.229 321.68 199.159 321.68 197.789C321.68 196.409 322.018 195.312 322.695 194.5C323.378 193.688 324.292 193.281 325.438 193.281C326.51 193.281 327.359 193.635 327.984 194.344C328.609 195.047 328.922 195.977 328.922 197.133V197.953H323.023C323.049 198.958 323.302 199.721 323.781 200.242C324.266 200.763 324.945 201.023 325.82 201.023C326.742 201.023 327.654 200.831 328.555 200.445V201.602C328.096 201.799 327.661 201.94 327.25 202.023C326.844 202.112 326.352 202.156 325.773 202.156ZM325.422 194.367C324.734 194.367 324.185 194.591 323.773 195.039C323.367 195.487 323.128 196.107 323.055 196.898H327.531C327.531 196.081 327.349 195.456 326.984 195.023C326.62 194.586 326.099 194.367 325.422 194.367ZM336.969 200.852H336.898C336.299 201.721 335.404 202.156 334.211 202.156C333.091 202.156 332.219 201.773 331.594 201.008C330.974 200.242 330.664 199.154 330.664 197.742C330.664 196.331 330.977 195.234 331.602 194.453C332.227 193.672 333.096 193.281 334.211 193.281C335.372 193.281 336.263 193.703 336.883 194.547H336.984L336.93 193.93L336.898 193.328V189.844H338.195V202H337.141L336.969 200.852ZM334.375 201.07C335.26 201.07 335.901 200.831 336.297 200.352C336.698 199.867 336.898 199.089 336.898 198.016V197.742C336.898 196.529 336.695 195.664 336.289 195.148C335.888 194.628 335.245 194.367 334.359 194.367C333.599 194.367 333.016 194.664 332.609 195.258C332.208 195.846 332.008 196.68 332.008 197.758C332.008 198.852 332.208 199.677 332.609 200.234C333.01 200.792 333.599 201.07 334.375 201.07ZM340.766 201.172C340.766 200.823 340.844 200.56 341 200.383C341.161 200.201 341.391 200.109 341.688 200.109C341.99 200.109 342.224 200.201 342.391 200.383C342.562 200.56 342.648 200.823 342.648 201.172C342.648 201.51 342.562 201.771 342.391 201.953C342.219 202.135 341.984 202.227 341.688 202.227C341.422 202.227 341.201 202.146 341.023 201.984C340.852 201.818 340.766 201.547 340.766 201.172Z" fill="black"/>
<g clip-path="url(#clip0_429_490)">
<g style="mix-blend-mode:multiply">
<path d="M76.4719 106.161L154.119 150.997L207.559 120.141L129.91 75.3091L76.4719 106.161Z" fill="#E8E8E8"/>
</g>
<path d="M167.044 29.937L100.55 68.329L168.5 107.571L234.967 69.183L235 69.168L167.044 29.937Z" fill="#FFDDA8"/>
<path d="M167.039 30.9719L102.354 68.3319L133.826 86.3719L168.504 106.252L201.718 87.2209L233.19 69.1649L167.039 30.9719Z" fill="#DDA866"/>
<path d="M167.038 30.9719V67.1899L168.506 106.252L201.718 87.2199L233.19 69.1639L167.038 30.9719Z" fill="#AA6838"/>
<path d="M167.038 67.1899L133.826 86.3679L168.504 106.251L201.718 87.2199L167.038 67.1899Z" fill="#C68B51"/>
<path d="M168.501 107.56V142.683L139.333 125.974L127.519 119.214L100.552 103.762V68.3291L168.501 107.56Z" fill="#BC7C46"/>
<path d="M168.507 107.568V142.677L234.968 104.542V69.1841L168.507 107.568Z" fill="#DDA866"/>
<path d="M76 37.5631V39.0481L100.55 68.3311H102.35L166 31.6191L165.981 30.5121L140.992 0.99707L76 37.5631Z" fill="#BC7C46"/>
<path d="M141.929 0L76 37.592L102.355 68.331L167.055 31.046L167.038 29.939L141.929 0Z" fill="#EDC893"/>
<path d="M177.483 117.88L178.964 115.308L177.477 114.45L177.483 117.88Z" fill="#4F2E16"/>
<path d="M180.933 111.897L179.483 114.406L178.039 113.568L180.933 111.897Z" fill="#4F2E16"/>
<path d="M179.484 115.608L181.071 116.527L177.9 118.358L179.484 115.608Z" fill="#4F2E16"/>
<path d="M180.007 114.706L181.556 115.606V112.02L180.007 114.706Z" fill="#4F2E16"/>
<path d="M176.802 113.155L176.541 113.607L182.172 116.859L182.433 116.407L176.802 113.155Z" fill="#4F2E16"/>
<path d="M182.16 110.05L176.55 119.816L176.81 119.965L182.42 110.199L182.16 110.05Z" fill="#4F2E16"/>
<path d="M182.119 111.214V115.925L182.489 115.71V111.001L182.119 111.214Z" fill="#4F2E16"/>
<path d="M176.484 114.464V119.175L176.856 118.96V114.251L176.484 114.464Z" fill="#4F2E16"/>
<path d="M183.582 112.562V112.883L184.496 112.356V112.036L183.582 112.562Z" fill="#4F2E16"/>
<path d="M182.589 113.296L183.783 113.404V111.804L182.589 113.296Z" fill="#4F2E16"/>
<path d="M174.545 117.777V118.098L175.459 117.57V117.249L174.545 117.777Z" fill="#4F2E16"/>
<path d="M175.257 118.326L176.451 116.837L175.257 116.731V118.326Z" fill="#4F2E16"/>
<path d="M183.385 118.833L175.585 123.333C174.871 123.745 174.292 123.412 174.294 122.588V113.579C174.319 113.13 174.448 112.693 174.673 112.304C174.898 111.914 175.211 111.583 175.587 111.337L183.387 106.837C184.097 106.425 184.68 106.758 184.68 107.582V116.591C184.655 117.04 184.525 117.477 184.3 117.866C184.075 118.255 183.762 118.586 183.385 118.831M175.585 111.766C175.316 111.942 175.093 112.178 174.932 112.456C174.771 112.734 174.678 113.046 174.66 113.366V122.375C174.66 122.965 175.074 123.203 175.583 122.909L183.383 118.409C183.651 118.233 183.874 117.997 184.035 117.719C184.195 117.441 184.288 117.129 184.306 116.809V107.798C184.306 107.21 183.892 106.97 183.381 107.266L175.585 111.766Z" fill="#4F2E16"/>
<path d="M233.833 69.8821L167.898 106.349V107.482L201.422 115.667L267.972 77.7471V76.6151L233.833 69.8821Z" fill="#BC7C46"/>
<path d="M233.833 68.7571L167.898 106.351L201.422 114.536L267.972 76.6181L233.833 68.7571Z" fill="#EDC893"/>
<path d="M143.801 121.101L144.746 105.101L144.846 105.182L143.901 121.182L143.801 121.101Z" fill="#231F20"/>
<path d="M124.403 106.19L125.591 108.902L125.827 104.851L124.64 102.143L124.403 106.19Z" fill="#231F20"/>
<path d="M122.893 107.358L124.277 106.123L124.751 98.0981C124.752 97.6874 124.893 97.2894 125.151 96.9701L124.267 94.9561C123.766 95.5377 123.491 96.2804 123.493 97.0481L123.133 103.248L122.893 107.358Z" fill="#231F20"/>
<path d="M121.177 96.1571L120.803 102.562C120.796 102.919 120.685 103.267 120.484 103.562L121.33 105.494C121.929 104.826 122.258 103.959 122.251 103.061L122.592 97.2091C122.645 96.0945 122.447 94.9823 122.011 93.9551L120.989 94.8671C121.134 95.2799 121.198 95.717 121.177 96.1541" fill="#231F20"/>
<path d="M130.168 101.099L129.953 104.84V104.867V104.894L131.337 103.659L131.494 100.999C131.531 100.152 131.376 99.3069 131.043 98.5271L129.897 99.5491C130.101 100.039 130.193 100.568 130.168 101.098" fill="#231F20"/>
<path d="M130.991 109.457L131.103 107.543L129.944 104.897L129.696 109.128L130.856 111.775L130.991 109.468V109.456" fill="#231F20"/>
<path d="M134.02 101.693C134.142 101.585 134.297 101.521 134.459 101.509C134.622 101.498 134.784 101.54 134.92 101.629L137.649 103.143C138.025 103.408 138.312 103.781 138.47 104.213L139.463 103.328C139.106 102.447 138.483 101.7 137.682 101.189L135.144 99.784C134.855 99.595 134.514 99.5028 134.169 99.5208C133.824 99.5387 133.494 99.6659 133.226 99.884L134.02 101.693Z" fill="#231F20"/>
<path d="M128.972 98.5831L126.158 97.0231C126.033 96.9414 125.886 96.9013 125.737 96.9083C125.588 96.9153 125.445 96.9691 125.328 97.0621L126.228 99.1081L128.622 100.436L129.722 99.4551C129.566 99.0964 129.306 98.7929 128.975 98.5841" fill="#231F20"/>
<path d="M128.323 107.453L128.155 110.322L129.572 109.063L129.81 105.019L127.973 106.654L128.323 107.453Z" fill="#231F20"/>
<path d="M125.248 96.88C125.377 96.776 125.535 96.7155 125.7 96.7073C125.865 96.699 126.029 96.7434 126.167 96.834L129.032 98.421C129.376 98.6575 129.647 98.9856 129.814 99.368L130.962 98.344C130.691 97.6852 130.222 97.1264 129.621 96.744L126.055 94.769C125.8 94.6014 125.499 94.5206 125.194 94.5386C124.89 94.5566 124.6 94.6725 124.367 94.869L125.248 96.88Z" fill="#231F20"/>
<path d="M130.044 101.031C130.065 100.554 129.981 100.078 129.798 99.6372L128.724 100.597L128.65 101.847L129.837 104.553L130.044 101.031Z" fill="#231F20"/>
<path d="M128.595 102.024L126.121 100.654L124.751 101.875L129.743 104.643L128.595 102.024Z" fill="#231F20"/>
<path d="M126.153 99.2511L125.234 97.1511C125.004 97.4392 124.879 97.7966 124.878 98.1651L124.669 101.694L126.084 100.432L126.153 99.2511Z" fill="#231F20"/>
<path d="M137.498 105.337L138.59 105.943L138.607 105.627C138.626 105.242 138.572 104.856 138.446 104.491L137.498 105.337Z" fill="#231F20"/>
<path d="M133.617 106.267L134.666 108.514L136.875 109.739L135.911 107.539L133.617 106.267Z" fill="#231F20"/>
<path d="M133.197 109.28H133.191L133.572 102.84C133.575 102.461 133.7 102.092 133.928 101.789L133.128 99.9712C132.527 100.64 132.198 101.509 132.205 102.408L131.862 108.267C131.809 109.385 132.009 110.501 132.447 111.531L133.428 110.658C133.256 110.221 133.176 109.754 133.192 109.284" fill="#231F20"/>
<path d="M138.731 105.695L138.714 106.011L140.141 106.801C140.193 105.674 139.988 104.549 139.541 103.512L138.541 104.404C138.688 104.818 138.753 105.257 138.731 105.695Z" fill="#231F20"/>
<path d="M137.221 111.224L137.96 112.914C138.122 112.667 138.215 112.38 138.227 112.084L138.244 111.796L137.221 111.224Z" fill="#231F20"/>
<path d="M137.018 113.117C137.15 113.204 137.308 113.242 137.464 113.223C137.621 113.205 137.766 113.132 137.874 113.017L137.045 111.127L134.664 109.809L133.605 110.754C133.753 111.116 134.009 111.423 134.339 111.633L137.018 113.117Z" fill="#231F20"/>
<path d="M134.569 109.639L134.623 108.714L133.493 106.294L133.315 109.308H133.321C133.3 109.738 133.37 110.167 133.526 110.568L134.569 109.639Z" fill="#231F20"/>
<path d="M133.694 102.904L133.518 105.89L134.85 104.825L134.898 104.004L134.008 101.972C133.808 102.243 133.698 102.57 133.694 102.907" fill="#231F20"/>
<path d="M137.591 103.304L134.91 101.819C134.787 101.738 134.642 101.699 134.495 101.709C134.348 101.719 134.209 101.778 134.099 101.875L135.011 103.958L137.32 105.237L138.373 104.298C138.228 103.89 137.953 103.54 137.591 103.303" fill="#231F20"/>
<path d="M137.11 107.778L137.189 106.423L136.01 107.474L136.997 109.725L137.11 107.843C137.11 107.82 137.11 107.797 137.11 107.773" fill="#231F20"/>
<path d="M135.892 107.331L137.121 106.231L135.812 105.507L134.912 105.007L133.606 106.063L135.892 107.331Z" fill="#231F20"/>
<path d="M129.625 109.267L128.262 110.485L129.236 111.023L129.257 111.037L130.769 111.873L129.625 109.267Z" fill="#231F20"/>
<path d="M111.609 98.92C111.486 99.0116 111.337 99.0631 111.184 99.0676C111.03 99.072 110.879 99.0292 110.751 98.945L108.072 97.46C107.671 97.1998 107.367 96.8155 107.205 96.366L106.16 97.297C106.517 98.1858 107.143 98.9409 107.95 99.457V99.452L110.45 100.838C110.743 101.031 111.091 101.123 111.441 101.102C111.792 101.08 112.126 100.945 112.393 100.718L111.609 98.92Z" fill="#231F20"/>
<path d="M112.098 97.81C112.089 98.187 111.95 98.5493 111.705 98.836L112.491 100.636C113.077 99.9687 113.397 99.1097 113.391 98.222L113.491 96.573L112.098 97.81Z" fill="#231F20"/>
<path d="M107.712 87.501C107.833 87.3771 107.994 87.2993 108.166 87.2811C108.339 87.2628 108.512 87.3052 108.657 87.401L111.332 88.884C111.679 89.1025 111.952 89.4203 112.116 89.796L113.074 88.94C112.716 88.0439 112.087 87.2824 111.274 86.762L109.141 85.577C108.807 85.3568 108.411 85.251 108.013 85.2757C107.614 85.3005 107.234 85.4543 106.93 85.714L107.712 87.501Z" fill="#231F20"/>
<path d="M111.974 97.748L110.824 95.125L110.737 96.625L111.625 98.652C111.839 98.3973 111.961 98.0784 111.973 97.746" fill="#231F20"/>
<path d="M113.399 96.3961L110.912 95.0181L112.044 97.6041L113.399 96.3961Z" fill="#231F20"/>
<path d="M138.356 112.1C138.351 112.457 138.241 112.805 138.04 113.1L138.905 115.072C139.49 114.405 139.81 113.547 139.805 112.66L138.369 111.86L138.356 112.1Z" fill="#231F20"/>
<path d="M137.953 113.201C137.832 113.326 137.672 113.406 137.499 113.425C137.326 113.444 137.151 113.403 137.006 113.307L134.288 111.799C133.941 111.562 133.67 111.228 133.51 110.839L132.532 111.712C132.889 112.603 133.517 113.36 134.326 113.877V113.869L136.867 115.277C137.16 115.47 137.508 115.562 137.858 115.541C138.209 115.519 138.543 115.385 138.81 115.157L137.953 113.201Z" fill="#231F20"/>
<path d="M112.396 91.5581L111.047 92.7581L113.525 94.1321L112.396 91.5581Z" fill="#231F20"/>
<path d="M129.732 104.832L124.74 102.066L125.94 104.797L127.556 105.691L127.897 106.471L129.732 104.832Z" fill="#231F20"/>
<path d="M124.331 106.34L122.959 107.563L124.988 108.688L125.031 108.713L125.482 108.963L124.331 106.34Z" fill="#231F20"/>
<path d="M120.395 103.665C120.274 103.788 120.113 103.865 119.941 103.884C119.77 103.902 119.597 103.86 119.452 103.765L116.723 102.25C116.371 102.003 116.098 101.659 115.937 101.261L114.975 102.118C115.331 103.01 115.958 103.767 116.767 104.284V104.269L119.31 105.678C119.599 105.868 119.941 105.961 120.287 105.943C120.632 105.925 120.963 105.797 121.23 105.578L120.395 103.665Z" fill="#231F20"/>
<path d="M112.466 91.4121L113.633 94.0781L113.733 92.3711C113.786 91.2581 113.588 90.1474 113.154 89.1211L112.198 89.9751C112.389 90.4304 112.48 90.9215 112.465 91.4151" fill="#231F20"/>
<path d="M120.675 102.544L121.054 96.0871C121.072 95.703 121.018 95.3189 120.893 94.9551L119.917 95.8261L119.586 101.515L120.403 103.381C120.569 103.133 120.663 102.843 120.676 102.545" fill="#231F20"/>
<path d="M111.026 91.0212L110.933 92.6102L112.34 91.3562C112.356 90.9109 112.276 90.4674 112.104 90.0562L111.026 91.0212Z" fill="#231F20"/>
<path d="M117.02 100.049L117.347 94.4431L116.462 92.4241C116.259 92.6953 116.148 93.0243 116.145 93.3631L115.766 99.7631H115.772C115.752 100.179 115.816 100.594 115.962 100.984L117.02 100.049Z" fill="#231F20"/>
<path d="M120.034 93.766L117.355 92.281C117.233 92.2006 117.089 92.1622 116.943 92.1716C116.797 92.1809 116.659 92.2376 116.548 92.333L117.433 94.352L119.808 95.668L120.82 94.768C120.676 94.3571 120.399 94.0056 120.034 93.768" fill="#231F20"/>
<path d="M116.47 92.1492C116.593 92.0421 116.747 91.9783 116.91 91.9675C117.072 91.9566 117.234 91.9994 117.37 92.0892L120.09 93.5972C120.473 93.8621 120.763 94.2395 120.922 94.6772L121.936 93.7772C121.577 92.8828 120.948 92.1228 120.136 91.6032L117.589 90.1922C117.298 90.0006 116.954 89.9074 116.606 89.9265C116.259 89.9456 115.927 90.0759 115.659 90.2982L116.47 92.1492Z" fill="#231F20"/>
<path d="M119.463 103.578C119.593 103.664 119.75 103.702 119.905 103.685C120.06 103.667 120.205 103.596 120.313 103.483L119.451 101.513L117.113 100.213L116.033 101.177C116.181 101.553 116.443 101.872 116.782 102.091L119.463 103.578Z" fill="#231F20"/>
<path d="M107.23 96.093L108.198 95.23L108.523 89.653L107.706 87.785C107.531 88.0487 107.435 88.3567 107.429 88.673L107.065 94.917L106.941 94.849L107.305 88.603C107.311 88.2456 107.422 87.8979 107.624 87.603L106.834 85.803C106.163 86.5627 105.796 87.5427 105.802 88.556L105.492 93.856C105.439 94.9753 105.64 96.0921 106.079 97.123L107.132 96.184C106.984 95.7673 106.919 95.3256 106.942 94.884L107.066 94.954C107.047 95.3416 107.102 95.7293 107.229 96.096" fill="#231F20"/>
<path d="M107.793 87.6871L108.6 89.5261L110.956 90.8331L112.021 89.8831C111.873 89.5507 111.629 89.2698 111.321 89.0761L108.643 87.5871C108.512 87.5016 108.355 87.4648 108.2 87.4831C108.045 87.5014 107.901 87.5736 107.793 87.6871Z" fill="#231F20"/>
<path d="M111.531 98.7392L110.631 96.6932L108.293 95.3982L107.3 96.2832C107.445 96.6902 107.72 97.0383 108.082 97.2742L110.761 98.7592C110.876 98.8343 111.011 98.8727 111.148 98.8693C111.285 98.8659 111.417 98.8208 111.528 98.7402" fill="#231F20"/>
<path d="M115.641 99.739H115.635L116.016 93.299C116.018 92.9172 116.145 92.5464 116.378 92.244L115.563 90.384C114.969 91.0525 114.644 91.917 114.649 92.811L114.312 98.678C114.259 99.7949 114.459 100.909 114.897 101.938L115.865 101.075C115.702 100.649 115.626 100.193 115.642 99.737" fill="#231F20"/>
<path d="M148.634 113.22C148.634 113.156 148.655 113.139 148.694 113.16L148.87 113.26C148.913 113.283 148.922 113.316 148.918 113.38L148.906 113.591C148.897 113.704 148.921 113.817 148.974 113.916C149.027 114.016 149.107 114.099 149.206 114.154L149.185 114.52C149.003 114.419 148.853 114.268 148.754 114.085C148.654 113.902 148.608 113.694 148.622 113.486L148.634 113.22ZM149.346 114.234C149.561 114.323 149.663 114.244 149.677 114.015L149.691 113.792C149.682 113.598 149.6 113.414 149.461 113.277L148.971 112.704C148.812 112.498 148.73 112.242 148.739 111.982L148.753 111.73C148.774 111.378 148.914 111.13 149.367 111.349L149.346 111.719C149.139 111.626 149.046 111.719 149.036 111.944L149.03 112.039C149.024 112.182 149.072 112.321 149.165 112.43L149.695 113.049C149.891 113.269 149.996 113.555 149.987 113.849L149.966 114.228C149.945 114.584 149.782 114.818 149.325 114.594L149.346 114.234ZM149.746 112.49L149.754 112.345C149.766 112.237 149.747 112.128 149.699 112.031C149.651 111.934 149.576 111.853 149.483 111.797L149.504 111.427C149.683 111.527 149.83 111.677 149.926 111.858C150.022 112.039 150.064 112.245 150.046 112.449L150.034 112.649C150.034 112.701 150.009 112.726 149.978 112.709H149.972L149.794 112.609C149.755 112.588 149.742 112.553 149.746 112.493" fill="#231F20"/>
<path d="M150.748 112.838C150.769 112.486 150.918 112.244 151.381 112.466L151.358 112.843C151.143 112.754 151.05 112.853 151.039 113.073L150.944 114.697C150.932 114.807 150.952 114.918 151 115.017C151.048 115.116 151.124 115.2 151.217 115.258L151.196 115.634C151.015 115.535 150.866 115.385 150.768 115.203C150.671 115.021 150.628 114.814 150.646 114.608L150.748 112.838ZM151.362 115.338C151.575 115.427 151.676 115.338 151.689 115.11L151.703 114.895C151.703 114.835 151.722 114.816 151.763 114.839L151.939 114.939C151.958 114.951 151.973 114.969 151.981 114.99C151.99 115.01 151.992 115.033 151.987 115.055L151.97 115.343C151.951 115.699 151.79 115.937 151.339 115.715L151.362 115.338ZM151.776 113.638L151.786 113.487C151.795 113.376 151.773 113.265 151.723 113.166C151.673 113.067 151.596 112.984 151.501 112.926L151.524 112.547C151.703 112.649 151.85 112.799 151.948 112.981C152.045 113.162 152.089 113.368 152.074 113.573L152.06 113.796C152.06 113.862 152.041 113.881 152 113.858L151.824 113.758C151.785 113.737 151.772 113.7 151.776 113.636" fill="#231F20"/>
<path d="M153.185 113.589C153.195 113.539 153.226 113.519 153.262 113.543L153.448 113.643C153.467 113.656 153.483 113.673 153.495 113.693C153.506 113.713 153.513 113.736 153.514 113.759V113.769L153.926 117.023C153.934 117.085 153.916 117.108 153.876 117.085L153.686 116.985C153.647 116.964 153.634 116.923 153.626 116.863L153.526 116.077L153.042 115.808L153.129 115.489L153.485 115.689L153.365 114.766C153.342 114.588 153.324 114.044 153.324 114.044C153.314 114.083 153.249 114.497 153.2 114.665L152.714 116.365C152.7 116.413 152.683 116.437 152.644 116.415L152.47 116.315C152.451 116.305 152.437 116.288 152.43 116.267C152.423 116.247 152.424 116.225 152.433 116.205L153.185 113.589Z" fill="#231F20"/>
<path d="M154.528 117.355L154.7 114.434C154.7 114.368 154.719 114.349 154.76 114.372L154.998 114.504L154.824 117.518C154.824 117.582 154.803 117.601 154.76 117.578L154.578 117.478C154.539 117.457 154.526 117.42 154.53 117.356M155.045 116.274L155.066 115.891L155.728 116.259C155.773 116.282 155.784 116.313 155.78 116.377L155.768 116.586C155.768 116.636 155.747 116.663 155.716 116.648L155.706 116.642L155.045 116.274ZM155.145 114.586L155.861 114.986C155.881 114.998 155.897 115.015 155.907 115.037C155.916 115.058 155.918 115.081 155.913 115.104L155.901 115.309C155.901 115.359 155.878 115.388 155.847 115.371L155.839 115.365L155.121 114.965L155.145 114.586Z" fill="#231F20"/>
<path d="M156.398 118.391L156.57 115.47C156.57 115.404 156.589 115.385 156.628 115.408L156.868 115.54L156.694 118.554C156.694 118.618 156.673 118.637 156.63 118.614L156.448 118.514C156.409 118.493 156.396 118.456 156.4 118.392M156.915 117.31L156.936 116.927L157.598 117.295C157.643 117.318 157.654 117.349 157.65 117.413L157.638 117.622C157.638 117.672 157.617 117.699 157.586 117.684L157.576 117.678L156.915 117.31ZM157.015 115.622L157.731 116.022C157.751 116.033 157.767 116.051 157.776 116.072C157.786 116.094 157.788 116.117 157.783 116.14L157.771 116.345C157.771 116.395 157.748 116.424 157.717 116.407L157.709 116.401L156.991 116.001L157.015 115.622Z" fill="#231F20"/>
<path d="M158.373 117.063C158.394 116.711 158.563 116.478 159.023 116.701L159 117.08C158.783 116.98 158.677 117.074 158.663 117.299L158.567 118.925C158.558 119.038 158.58 119.151 158.632 119.252C158.684 119.353 158.762 119.437 158.859 119.496L158.836 119.87C158.653 119.769 158.502 119.618 158.402 119.435C158.301 119.251 158.255 119.043 158.269 118.834L158.373 117.063ZM159.004 119.575C159.219 119.666 159.331 119.587 159.345 119.354L159.44 117.728C159.447 117.615 159.424 117.503 159.372 117.403C159.32 117.302 159.242 117.218 159.146 117.159L159.167 116.78C159.35 116.882 159.501 117.033 159.602 117.217C159.703 117.4 159.75 117.609 159.738 117.818L159.638 119.589C159.617 119.947 159.438 120.176 158.986 119.949L159.004 119.575Z" fill="#231F20"/>
<path d="M160.527 117.664C160.527 117.598 160.548 117.581 160.587 117.602L160.769 117.702C160.814 117.725 160.825 117.762 160.821 117.826L160.645 120.843L160.399 120.706C160.364 120.687 160.353 120.648 160.356 120.588L160.527 117.664ZM160.812 120.54L161.433 120.885C161.476 120.908 161.491 120.935 161.487 120.999L161.475 121.21C161.475 121.274 161.452 121.285 161.409 121.262L160.788 120.919L160.812 120.54Z" fill="#231F20"/>
<path d="M162.232 118.608C162.232 118.542 162.253 118.525 162.292 118.546L162.532 118.678L162.35 121.785L162.104 121.648C162.069 121.629 162.058 121.59 162.061 121.53L162.232 118.608ZM162.517 121.484L162.759 121.619C163.03 121.768 163.159 121.683 163.173 121.437L163.264 119.885C163.272 119.758 163.241 119.631 163.175 119.521C163.109 119.412 163.012 119.324 162.896 119.271L162.654 119.136L162.675 118.759L162.919 118.893C163.122 118.989 163.291 119.143 163.406 119.336C163.52 119.529 163.575 119.751 163.562 119.975L163.462 121.675C163.439 122.049 163.253 122.285 162.736 121.998L162.494 121.864L162.517 121.484Z" fill="#231F20"/>
<path d="M148.33 118.428C148.33 118.362 148.351 118.345 148.39 118.366L148.566 118.466C148.609 118.489 148.618 118.522 148.614 118.586L148.602 118.797C148.593 118.91 148.617 119.023 148.67 119.122C148.723 119.222 148.804 119.305 148.902 119.36L148.881 119.726C148.698 119.626 148.548 119.475 148.449 119.293C148.349 119.11 148.304 118.902 148.318 118.694L148.33 118.428ZM149.042 119.44C149.257 119.531 149.359 119.452 149.373 119.223L149.387 118.998C149.378 118.804 149.296 118.62 149.157 118.483L148.667 117.91C148.508 117.704 148.426 117.448 148.435 117.188L148.45 116.936C148.469 116.586 148.609 116.336 149.062 116.555L149.041 116.925C148.834 116.834 148.741 116.931 148.731 117.15L148.725 117.25C148.72 117.393 148.768 117.532 148.86 117.641L149.39 118.258C149.587 118.477 149.692 118.764 149.682 119.058L149.661 119.439C149.64 119.793 149.477 120.029 149.02 119.805L149.042 119.44ZM149.442 117.698L149.452 117.553C149.464 117.445 149.445 117.337 149.397 117.239C149.349 117.142 149.274 117.061 149.181 117.005L149.202 116.637C149.381 116.737 149.528 116.886 149.623 117.067C149.719 117.248 149.761 117.453 149.742 117.657L149.73 117.857C149.73 117.907 149.707 117.934 149.674 117.915H149.668L149.492 117.815C149.451 117.794 149.438 117.759 149.442 117.699" fill="#231F20"/>
<path d="M150.803 119.572L150.319 117.372C150.304 117.308 150.319 117.287 150.365 117.31L150.572 117.424C150.611 117.445 150.62 117.484 150.636 117.548L151.097 119.718L151.036 120.803C151.036 120.863 151.015 120.88 150.976 120.859L150.794 120.759C150.774 120.748 150.758 120.73 150.749 120.709C150.739 120.687 150.737 120.664 150.742 120.641L150.803 119.572ZM151.074 118.962L151.506 118.033C151.523 117.994 151.541 117.963 151.58 117.985L151.76 118.085C151.77 118.089 151.778 118.096 151.786 118.104C151.793 118.112 151.798 118.121 151.801 118.131C151.805 118.142 151.806 118.152 151.805 118.163C151.804 118.173 151.8 118.184 151.795 118.193L151.195 119.476L151.074 118.962Z" fill="#231F20"/>
<path d="M152.213 120.58C152.213 120.514 152.234 120.497 152.273 120.518L152.449 120.618C152.492 120.641 152.503 120.674 152.499 120.738L152.485 120.949C152.477 121.062 152.5 121.175 152.553 121.275C152.606 121.375 152.687 121.458 152.785 121.514L152.764 121.878C152.581 121.778 152.431 121.628 152.332 121.445C152.232 121.262 152.188 121.054 152.203 120.846L152.213 120.58ZM152.925 121.592C153.14 121.683 153.242 121.604 153.256 121.375L153.27 121.15C153.261 120.956 153.178 120.772 153.04 120.635L152.55 120.062C152.391 119.857 152.308 119.602 152.317 119.342L152.332 119.09C152.351 118.74 152.491 118.49 152.944 118.709L152.923 119.079C152.716 118.988 152.623 119.085 152.613 119.304L152.607 119.404C152.602 119.547 152.65 119.686 152.742 119.795L153.272 120.412C153.469 120.631 153.573 120.918 153.564 121.212L153.543 121.593C153.522 121.947 153.359 122.183 152.902 121.959L152.925 121.592ZM153.325 119.85L153.335 119.705C153.347 119.597 153.328 119.489 153.28 119.391C153.232 119.294 153.157 119.213 153.064 119.157L153.085 118.789C153.264 118.889 153.41 119.038 153.506 119.219C153.602 119.4 153.643 119.605 153.625 119.809L153.613 120.009C153.613 120.059 153.59 120.086 153.557 120.067H153.551L153.375 119.967C153.355 119.956 153.34 119.938 153.331 119.917C153.322 119.896 153.32 119.873 153.325 119.851" fill="#231F20"/>
<path d="M154.179 119.727L154.191 119.522C154.191 119.472 154.21 119.445 154.243 119.462H154.251L155.505 120.157C155.548 120.18 155.561 120.211 155.555 120.275L155.545 120.482C155.539 120.546 155.522 120.559 155.483 120.536L154.23 119.843C154.191 119.822 154.176 119.791 154.18 119.725M154.699 120.315L154.991 120.478L154.852 122.907C154.852 122.971 154.835 122.992 154.79 122.969L154.61 122.869C154.569 122.848 154.554 122.811 154.556 122.747L154.699 120.315Z" fill="#231F20"/>
<path d="M155.976 123.533L156.148 120.61C156.148 120.544 156.167 120.527 156.206 120.548L156.446 120.682L156.266 123.782L156.024 123.648C155.985 123.627 155.972 123.592 155.976 123.528M156.431 123.482L157.105 123.856C157.148 123.879 157.161 123.906 157.157 123.97L157.145 124.181C157.145 124.245 157.126 124.258 157.083 124.235L156.407 123.861L156.431 123.482ZM156.514 122.057L157.1 122.384C157.121 122.395 157.138 122.412 157.148 122.433C157.159 122.455 157.161 122.479 157.156 122.502L157.144 122.702C157.144 122.754 157.119 122.779 157.086 122.76H157.078L156.491 122.435L156.514 122.057ZM156.589 120.757L157.23 121.113C157.271 121.134 157.286 121.167 157.282 121.231L157.27 121.436C157.27 121.486 157.249 121.513 157.218 121.496H157.208L156.567 121.14L156.589 120.757Z" fill="#231F20"/>
<path d="M158.001 121.633C158.001 121.573 158.02 121.556 158.061 121.577L158.282 121.699L158.106 124.732C158.106 124.777 158.081 124.798 158.052 124.778L157.884 124.685C157.865 124.673 157.85 124.655 157.841 124.635C157.833 124.614 157.831 124.591 157.836 124.569L158.001 121.633ZM158.34 123.263L158.398 122.255L158.688 123.871C158.707 123.971 158.733 124.171 158.734 124.181C158.734 124.171 158.773 124.069 158.815 123.949L159.26 122.743L159.204 123.73L158.865 124.649C158.853 124.697 158.82 124.717 158.784 124.697L158.627 124.612C158.607 124.596 158.591 124.576 158.58 124.553C158.568 124.53 158.562 124.505 158.561 124.48L158.34 123.263ZM159.434 122.338L159.664 122.466C159.683 122.478 159.698 122.495 159.707 122.516C159.715 122.537 159.717 122.56 159.712 122.582L159.542 125.515C159.542 125.573 159.523 125.592 159.484 125.571L159.306 125.471C159.267 125.45 159.254 125.415 159.258 125.355L159.434 122.338Z" fill="#231F20"/>
<path d="M160.313 125.069C160.313 125.003 160.334 124.986 160.373 125.007L160.549 125.107C160.592 125.13 160.603 125.163 160.597 125.227L160.585 125.438C160.576 125.551 160.6 125.664 160.653 125.763C160.706 125.863 160.786 125.946 160.885 126.001L160.864 126.367C160.681 126.267 160.531 126.116 160.431 125.933C160.332 125.75 160.286 125.543 160.301 125.335L160.313 125.069ZM161.025 126.081C161.24 126.172 161.342 126.093 161.356 125.864L161.37 125.639C161.361 125.445 161.279 125.261 161.14 125.124L160.65 124.551C160.491 124.345 160.409 124.089 160.418 123.829L160.433 123.577C160.452 123.227 160.592 122.977 161.045 123.196L161.024 123.566C160.817 123.475 160.724 123.572 160.714 123.791L160.708 123.891C160.703 124.034 160.751 124.173 160.843 124.282L161.373 124.899C161.57 125.118 161.675 125.405 161.665 125.699L161.644 126.08C161.623 126.434 161.46 126.67 161.003 126.446L161.025 126.081ZM161.425 124.339L161.435 124.194C161.447 124.086 161.428 123.977 161.38 123.88C161.332 123.783 161.257 123.702 161.164 123.646L161.185 123.278C161.364 123.377 161.51 123.527 161.606 123.708C161.702 123.889 161.743 124.094 161.725 124.298L161.713 124.498C161.713 124.548 161.69 124.575 161.657 124.556H161.651L161.475 124.456C161.434 124.435 161.421 124.4 161.425 124.34" fill="#231F20"/>
</g>
<defs>
<clipPath id="clip0_429_490">
<rect width="191.969" height="150.996" fill="white" transform="translate(76)"/>
</clipPath>
</defs>
</svg>
